# xmcd
#
# Track frame offsets: 
#        150
#        18063
#        40438
#        57713
#        82875
#        99400
#        122425
#        142150
#        163638
#        182975
#        202050
#
# Disc length: 2998 seconds
#
# Revision: 2
# Processed by: cddbd v1.5.2PL0 Copyright (c) Steve Scherf et al.
# Submitted via: ExactAudioCopy v1.1
#
DISCID=970bb40b
DTITLE=陳百強 - 凝望  (2002)
DYEAR=1986
DGENRE=Chinese Pop
TTITLE0=凝望
TTITLE1=超越時空
TTITLE2=迷失中有著你
TTITLE3=我愛上課
TTITLE4=沒法可續緣
TTITLE5=至愛
TTITLE6=心願
TTITLE7=愛沒有不對
TTITLE8=你令我心醉
TTITLE9=散聚
TTITLE10=Greatest Love of All
EXTD=
EXTT0=
EXTT1=
EXTT2=
EXTT3=
EXTT4=
EXTT5=
EXTT6=
EXTT7=
EXTT8=
EXTT9=
EXTT10=
PLAYORDER=
